<svg width="73" height="97" viewBox="0 0 73 97" fill="none" xmlns="http://www.w3.org/2000/svg">
<g filter="url(#filter0_d_178_10)">
<path d="M24.9368 6.14083L55.8212 0.875587L68.233 29.4875L39.0019 76.2691L11.1073 87.865L4.45103 59.2239L24.9368 6.14083Z" fill="url(#paint0_radial_178_10)"/>
<path d="M55.8212 0.875587L24.9368 6.14083M55.8212 0.875587L68.233 29.4875M55.8212 0.875587L54.8763 31.8725M55.8212 0.875587L40.773 27.1519M24.9368 6.14083L4.45103 59.2239M24.9368 6.14083L40.773 27.1519M4.45103 59.2239L11.1073 87.865M4.45103 59.2239L17.6344 67.9779M11.1073 87.865L39.0019 76.2691M11.1073 87.865L17.6344 67.9779M11.1073 87.865L26.9353 75.3035M39.0019 76.2691L68.233 29.4875M39.0019 76.2691L26.9353 75.3035M68.233 29.4875L54.8763 31.8725M26.9353 75.3035L17.6344 67.9779M26.9353 75.3035L54.8763 31.8725M17.6344 67.9779L40.773 27.1519M54.8763 31.8725L40.773 27.1519" stroke="#C17CE3" stroke-width="0.5"/>
</g>
<defs>
<filter id="filter0_d_178_10" x="0.190186" y="0.596184" width="72.3245" height="95.613" filterUnits="userSpaceOnUse" color-interpolation-filters="sRGB">
<feFlood flood-opacity="0" result="BackgroundImageFix"/>
<feColorMatrix in="SourceAlpha" type="matrix" values="0 0 0 0 0 0 0 0 0 0 0 0 0 0 0 0 0 0 127 0" result="hardAlpha"/>
<feOffset dy="4"/>
<feGaussianBlur stdDeviation="2"/>
<feComposite in2="hardAlpha" operator="out"/>
<feColorMatrix type="matrix" values="0 0 0 0 0.756863 0 0 0 0 0.486275 0 0 0 0 0.890196 0 0 0 0.15 0"/>
<feBlend mode="lighten" in2="BackgroundImageFix" result="effect1_dropShadow_178_10"/>
<feBlend mode="normal" in="SourceGraphic" in2="effect1_dropShadow_178_10" result="shape"/>
</filter>
<radialGradient id="paint0_radial_178_10" cx="0" cy="0" r="1" gradientUnits="userSpaceOnUse" gradientTransform="translate(31.7978 41.298) rotate(61.524) scale(34.175 46.1612)">
<stop stop-color="#9E67B8"/>
<stop offset="1" stop-color="#462E52"/>
</radialGradient>
</defs>
</svg>
