<svg width="60" height="106" viewBox="0 0 60 106" fill="none" xmlns="http://www.w3.org/2000/svg">
<g filter="url(#filter0_d_178_4)">
<path d="M6.61558 15.8237L34.128 0.837234L55.1401 23.885L42.6426 77.6128L20.0099 97.6198L4.43325 72.6799L6.61558 15.8237Z" fill="url(#paint0_radial_178_4)"/>
<path d="M34.128 0.837236L6.61558 15.8237M34.128 0.837236L55.1401 23.885M34.128 0.837236L43.2767 30.4684M34.128 0.837236L28.4048 30.5712M6.61558 15.8237L4.43325 72.6799M6.61558 15.8237L28.4048 30.5712M4.43325 72.6799L20.0099 97.6198M4.43325 72.6799L19.7417 76.6909M20.0099 97.6198L42.6426 77.6128M20.0099 97.6198L19.7417 76.6909M20.0099 97.6198L30.9142 80.6083M42.6426 77.6128L55.1401 23.885M42.6426 77.6128L30.9142 80.6083M55.1401 23.885L43.2767 30.4684M30.9142 80.6083L19.7417 76.6909M30.9142 80.6083L43.2767 30.4684M19.7417 76.6909L28.4048 30.5712M43.2767 30.4684L28.4048 30.5712" stroke="#7CC7E0" stroke-width="0.5"/>
</g>
<defs>
<filter id="filter0_d_178_4" x="0.18042" y="0.523895" width="59.2329" height="105.479" filterUnits="userSpaceOnUse" color-interpolation-filters="sRGB">
<feFlood flood-opacity="0" result="BackgroundImageFix"/>
<feColorMatrix in="SourceAlpha" type="matrix" values="0 0 0 0 0 0 0 0 0 0 0 0 0 0 0 0 0 0 127 0" result="hardAlpha"/>
<feOffset dy="4"/>
<feGaussianBlur stdDeviation="2"/>
<feComposite in2="hardAlpha" operator="out"/>
<feColorMatrix type="matrix" values="0 0 0 0 0.486275 0 0 0 0 0.780392 0 0 0 0 0.878431 0 0 0 0.15 0"/>
<feBlend mode="lighten" in2="BackgroundImageFix" result="effect1_dropShadow_178_4"/>
<feBlend mode="normal" in="SourceGraphic" in2="effect1_dropShadow_178_4" result="shape"/>
</filter>
<radialGradient id="paint0_radial_178_4" cx="0" cy="0" r="1" gradientUnits="userSpaceOnUse" gradientTransform="translate(24.497 46.8618) rotate(110.308) scale(34.1753 28.6992)">
<stop stop-color="#6CAABE"/>
<stop offset="1" stop-color="#446C7A"/>
</radialGradient>
</defs>
</svg>
