<svg width="31" height="33" viewBox="0 0 31 33" fill="none" xmlns="http://www.w3.org/2000/svg">
<path d="M14.7935 1.62988C15.369 1.09547 16.2599 1.09547 16.8354 1.62988L21.7505 6.19434C21.9424 6.37257 22.1613 6.51958 22.3989 6.62988L29.1978 9.78613C29.8806 10.1033 30.2222 10.8783 29.9966 11.5967L28.813 15.3652C28.6598 15.8529 28.6598 16.3766 28.813 16.8643L29.9966 20.6338C30.222 21.3521 29.8805 22.1262 29.1978 22.4434L22.3989 25.5996C22.1614 25.7099 21.9424 25.857 21.7505 26.0352L16.8354 30.5996C16.2599 31.134 15.369 31.134 14.7935 30.5996L9.87842 26.0352C9.68652 25.857 9.46748 25.7099 9.22998 25.5996L2.49756 22.4736C1.79368 22.1467 1.45506 21.3369 1.71729 20.6064L3.02686 16.96C3.22283 16.414 3.22275 15.8165 3.02686 15.2705L1.71729 11.623C1.45506 10.8926 1.79364 10.0827 2.49756 9.75586L9.22998 6.62988C9.4675 6.5196 9.6865 6.37251 9.87842 6.19434L14.7935 1.62988Z" stroke="#96A4B1"/>
<path d="M15.8145 13.0337C17.6628 13.0337 19.1113 14.4402 19.1113 16.1147C19.1113 17.7893 17.6628 19.1958 15.8145 19.1958C13.9663 19.1956 12.5186 17.7892 12.5186 16.1147C12.5186 14.4403 13.9663 13.0339 15.8145 13.0337Z" stroke="#96A4B1"/>
</svg>
