<svg width="34" height="34" viewBox="0 0 34 34" fill="none" xmlns="http://www.w3.org/2000/svg">
<path d="M29.2473 25.1875C20.29 25.8421 13.7348 25.8416 4.59517 25.2054C2.84985 25.0839 2.13393 22.9466 3.5402 21.9058C3.79231 21.7192 4.04408 21.5383 4.29825 21.361C6.77281 19.635 8.72489 17.1312 8.93793 14.1217C9.0283 12.845 9.04893 11.6336 9.00581 10.3866C8.8681 6.40503 10.431 2.13674 14.2657 1.05634C16.3077 0.481016 18.2041 0.468735 20.2472 1.03837C24.0671 2.10341 25.5633 6.38322 25.4226 10.3463C25.374 11.7153 25.4068 13.0506 25.5292 14.4884C25.7674 17.2847 27.5113 19.6419 29.7053 21.3919C29.9409 21.5799 30.1711 21.7694 30.3986 21.9626C31.6791 23.0506 30.9231 25.065 29.2473 25.1875Z" stroke="#96A4B1"/>
<path d="M14.6196 29.8577C15.5981 31.4331 16.3987 32.3892 17.1623 32.7191C17.564 32.8927 17.9554 32.893 18.3572 32.7191C19.1168 32.3904 19.9133 31.4388 20.8853 29.8577" stroke="#96A4B1" stroke-linecap="round"/>
</svg>
