<svg width="28" height="18" viewBox="0 0 28 18" fill="none" xmlns="http://www.w3.org/2000/svg">
<path d="M2.40625 11.1562V18H0.238281V0.9375H5.76953C6.53516 0.953125 7.25781 1.07422 7.9375 1.30078C8.625 1.52734 9.22656 1.85547 9.74219 2.28516C10.2578 2.71484 10.6641 3.24609 10.9609 3.87891C11.2656 4.51172 11.418 5.23828 11.418 6.05859C11.418 6.87891 11.2656 7.60547 10.9609 8.23828C10.6641 8.86328 10.2578 9.39062 9.74219 9.82031C9.22656 10.25 8.625 10.5781 7.9375 10.8047C7.25781 11.0312 6.53516 11.1484 5.76953 11.1562H2.40625ZM2.40625 9.375H5.76953C6.26953 9.36719 6.73047 9.28906 7.15234 9.14062C7.57422 8.98438 7.94141 8.76562 8.25391 8.48438C8.56641 8.20312 8.80859 7.86328 8.98047 7.46484C9.16016 7.05859 9.25 6.59766 9.25 6.08203C9.25 5.56641 9.16016 5.10156 8.98047 4.6875C8.80859 4.27344 8.57031 3.92188 8.26562 3.63281C7.95312 3.34375 7.58203 3.12109 7.15234 2.96484C6.73047 2.80859 6.26953 2.72656 5.76953 2.71875H2.40625V9.375ZM21.7816 11.0391H18.3714V18H16.2152V0.9375H21.2191C22.0159 0.953125 22.7659 1.06641 23.4691 1.27734C24.1722 1.48828 24.7894 1.80469 25.3206 2.22656C25.8441 2.64844 26.2542 3.17969 26.5511 3.82031C26.8558 4.45312 27.0081 5.19922 27.0081 6.05859C27.0081 6.61328 26.9261 7.12109 26.762 7.58203C26.6058 8.04297 26.387 8.46094 26.1058 8.83594C25.8245 9.21094 25.4886 9.54297 25.098 9.83203C24.7073 10.1211 24.2777 10.3672 23.8089 10.5703L27.43 17.8594L27.4183 18H25.1331L21.7816 11.0391ZM18.3714 9.25781H21.2777C21.762 9.25 22.2191 9.17578 22.6488 9.03516C23.0784 8.88672 23.4573 8.67578 23.7855 8.40234C24.1058 8.12891 24.3597 7.79688 24.5472 7.40625C24.7347 7.00781 24.8284 6.55078 24.8284 6.03516C24.8284 5.48828 24.7386 5.01172 24.5589 4.60547C24.3792 4.19141 24.1292 3.84375 23.8089 3.5625C23.4886 3.28906 23.1058 3.08203 22.6605 2.94141C22.223 2.80078 21.7425 2.72656 21.2191 2.71875H18.3714V9.25781Z" fill="#96A4B1"/>
</svg>
